<?xml version="1.0" encoding="UTF-8"?>
<svg xmlns="http://www.w3.org/2000/svg" version="1.1" width="100%" height="100%" viewBox="570 170 910 940">
  <g>
    <path fill="#dc4052"
      d="M 1325.5,223.5 C 1380.05,230.72 1412.05,261.387 1421.5,315.5C 1421.83,508.001 1421.5,700.334 1420.5,892.5C 1414.88,853.412 1396.22,822.245 1364.5,799C 1344.52,785.562 1322.52,777.896 1298.5,776C 1245.5,775.667 1192.5,775.333 1139.5,775C 1118.42,766.204 1109.59,750.371 1113,727.5C 1116.77,715.57 1124.27,706.903 1135.5,701.5C 1137.93,701.477 1140.26,700.977 1142.5,700C 1204.51,700.164 1266.17,699.331 1327.5,697.5C 1355.54,664.793 1383.21,631.793 1410.5,598.5C 1365.24,597.831 1319.24,597.498 1272.5,597.5C 1226.17,597.667 1179.83,597.833 1133.5,598C 1131.29,598.191 1129.29,598.691 1127.5,599.5C 1088.55,607.053 1057.72,627.053 1035,659.5C 1026.65,672.205 1020.48,685.872 1016.5,700.5C 1015.08,702.515 1014.41,704.848 1014.5,707.5C 1003.64,772.467 1025.64,822.967 1080.5,859C 1095.98,868.216 1112.65,873.716 1130.5,875.5C 1132.29,876.309 1134.29,876.809 1136.5,877C 1187.83,877.5 1239.17,877.667 1290.5,877.5C 1318.74,885.975 1327.9,904.309 1318,932.5C 1312.69,943.231 1304.19,949.731 1292.5,952C 1212.16,952.167 1131.83,952.667 1051.5,953.5C 1020.74,985.432 989.736,1017.27 958.5,1049C 877.5,1049.67 796.5,1049.67 715.5,1049C 671.27,1041.76 642.104,1016.93 628,974.5C 626.892,968.853 625.892,963.186 625,957.5C 624.333,742.5 624.333,527.5 625,312.5C 627.065,296.464 632.565,281.797 641.5,268.5C 642.166,513.736 642.832,758.402 643.5,1002.5C 644.833,1001.83 645.833,1000.83 646.5,999.5C 679.812,966.521 713.146,933.521 746.5,900.5C 747.5,713.168 747.833,525.835 747.5,338.5C 807.168,338.333 866.834,338.5 926.5,339C 975.462,349.295 1003.96,379.128 1012,428.5C 1014.94,471.778 998.773,505.611 963.5,530C 951.015,536.939 937.682,541.273 923.5,543C 900.833,543.333 878.167,543.667 855.5,544C 827.665,577.998 799.665,611.832 771.5,645.5C 770.711,645.783 770.044,646.283 769.5,647C 821.668,647.832 873.668,647.665 925.5,646.5C 930.181,646.331 934.848,645.998 939.5,645.5C 943.489,645.884 947.155,645.217 950.5,643.5C 1032.63,624.534 1085.47,574.534 1109,493.5C 1127.69,411.068 1106.53,340.901 1045.5,283C 1011.8,254.497 972.802,238.663 928.5,235.5C 845.833,234.833 763.167,234.167 680.5,233.5C 689.302,228.899 698.636,225.899 708.5,224.5C 914.156,223.509 1119.82,223.175 1325.5,223.5 Z" />
    <path fill="#dc4052"
      d="M 1419.5,941.5 C 1420.48,945.634 1420.82,949.968 1420.5,954.5C 1416.67,995.669 1396.01,1024.84 1358.5,1042C 1344.39,1047.82 1329.72,1050.49 1314.5,1050C 1357.76,1040.07 1389.26,1015.24 1409,975.5C 1413.81,964.559 1417.31,953.226 1419.5,941.5 Z" />
  </g>
</svg>
